<?xml version="1.0" encoding="utf-8"?>
<!-- Generator: Adobe Illustrator 16.0.0, SVG Export Plug-In . SVG Version: 6.00 Build 0)  -->
<!DOCTYPE svg PUBLIC "-//W3C//DTD SVG 1.1//EN" "http://www.w3.org/Graphics/SVG/1.1/DTD/svg11.dtd">
<svg version="1.1" id="Layer_1" xmlns="http://www.w3.org/2000/svg" xmlns:xlink="http://www.w3.org/1999/xlink" x="0px" y="0px"
	 width="960px" height="560px" viewBox="0 0 960 560" enable-background="new 0 0 960 560" xml:space="preserve">
<g>
	<g>
		<polygon fill="none" points="262.463,123 335.3,225.003 388.44,123 		"/>
		<polygon fill="none" points="479.829,428.219 547.82,333 411.838,333 		"/>
		<polygon fill="none" points="403.457,123 343.982,236.975 401.974,318 557.685,318 615.674,236.975 556.201,123 		"/>
		<polygon fill="none" points="571.22,123 624.358,225.003 697.195,123 		"/>
		<path fill="#fff" d="M564.024,110h-15.021H410.652h-15.017h-159.29l92.099,128.929l8.683,12.133l48.593,68.042l9.864,13.806l84.244,117.977
			l84.244-117.98l9.864-13.813l48.594-68.053l8.684-12.112L723.312,110H564.024z M335.3,225.003L262.463,123H388.44L335.3,225.003z
			 M479.829,428.219L411.838,333H547.82L479.829,428.219z M557.685,318H401.974l-57.991-81.025L403.457,123h152.745l59.473,113.975
			L557.685,318z M624.358,225.003L571.22,123h125.976L624.358,225.003z"/>
	</g>
	<g>
		<path fill="#fff" d="M527.07,260.644c-23.524,0-42.662-20.26-42.662-45.163c0-24.903,19.138-45.163,42.662-45.163
			c23.525,0,42.663,20.26,42.663,45.163C569.733,240.384,550.596,260.644,527.07,260.644z M527.07,183.677
			c-16.159,0-29.305,14.267-29.305,31.804c0,17.537,13.146,31.804,29.305,31.804c16.16,0,29.306-14.267,29.306-31.804
			C556.376,197.944,543.23,183.677,527.07,183.677z"/>
		<path fill="#fff" d="M432.587,260.644c-23.524,0-42.664-20.26-42.664-45.163c0-24.903,19.139-45.163,42.664-45.163
			s42.664,20.26,42.664,45.163C475.251,240.384,456.112,260.644,432.587,260.644z M432.587,183.677
			c-16.158,0-29.305,14.267-29.305,31.804c0,17.537,13.146,31.804,29.305,31.804s29.305-14.267,29.305-31.804
			C461.892,197.944,448.746,183.677,432.587,183.677z"/>
	</g>
	<g>
		<path fill="#fff" d="M500.075,375.829c-9.583,0-17.381-8.19-17.381-18.257s7.798-18.257,17.381-18.257
			c9.584,0,17.382,8.19,17.382,18.257S509.659,375.829,500.075,375.829z M500.075,348.855c-4.323,0-7.841,3.91-7.841,8.717
			c0,4.806,3.518,8.717,7.841,8.717s7.841-3.911,7.841-8.717C507.916,352.766,504.398,348.855,500.075,348.855z"/>
		<path fill="#fff" d="M459.583,375.829c-9.584,0-17.382-8.19-17.382-18.257s7.797-18.257,17.382-18.257
			s17.382,8.19,17.382,18.257S469.167,375.829,459.583,375.829z M459.583,348.855c-4.323,0-7.84,3.91-7.84,8.717
			c0,4.806,3.517,8.717,7.84,8.717s7.84-3.911,7.84-8.717C467.423,352.766,463.906,348.855,459.583,348.855z"/>
	</g>
</g>
</svg>
